<svg width="37" height="45" viewBox="0 0 37 45" fill="none" xmlns="http://www.w3.org/2000/svg">
<path d="M3.40055 3.8746H7.00411V4.33288C6.47627 5.4661 4.72016 5.94383 3.90809 6.04104H3.09602C0.700412 5.54109 0.0338363 4.16623 0 3.5413V2.58307C0.243621 0.716592 2.16552 0.0833247 3.09602 0H33.8532C34.0156 0 34.3269 0.0555498 34.4623 0.0833247C36.3706 0.516613 36.9492 1.79148 37 2.37475V3.70795C37 3.84127 36.9323 4.04125 36.8985 4.12457C35.8834 5.59109 34.4454 5.95771 33.8532 5.95771H33.0412C32.8787 5.95771 32.4998 5.90216 32.3306 5.87439C30.8283 5.47443 30.1481 4.5412 29.9959 4.12457V3.79127H33.7517C34.239 3.75794 34.4284 3.44409 34.4623 3.29132V2.62473C34.3811 2.2581 34.0224 2.13867 33.8532 2.12478H6.54733H3.09602C2.56818 2.15811 2.43621 2.52752 2.43621 2.70805V3.04135C2.39561 3.64129 3.06218 3.84682 3.40055 3.8746Z" fill="white"/>
<path d="M27.2551 3.45798H9.69409V3.83294C10.0189 5.03281 11.1152 5.41611 11.6228 5.45777H25.3265L25.8848 5.37444C26.9405 5.14114 27.2382 4.22179 27.2551 3.79128V3.45798Z" fill="white"/>
<path d="M11.6735 29.2886V6.8743H14.4143V23.2059V23.2893L14.3635 23.7059C14.2823 24.5391 12.6379 27.7194 11.8258 29.2053L11.6735 29.2886Z" fill="white"/>
<path d="M25.631 29.2886V6.8743H22.8902V23.2059V23.2893L22.941 23.7059C23.0222 24.5391 24.6666 27.7194 25.4787 29.2053L25.631 29.2886Z" fill="white"/>
<path d="M2.38535 8.79077H10.5061V9.37404C10.2218 10.2406 9.20336 10.7906 8.72965 10.9572L8.37437 11.0405H5.2276V30.7052C5.63363 32.5716 7.05476 34.2603 7.71456 34.8714C8.03939 35.3713 9.77858 36.4685 10.6076 36.9545L18.5253 41.9123L26.849 36.9545C28.2701 36.2213 29.4375 35.2602 29.8435 34.8714C31.7113 33.0716 32.2121 31.344 32.229 30.7052V11.0405H29.1329H28.9807L28.5746 10.9572C27.2347 10.3906 26.8998 9.66568 26.8998 9.37404V8.8741L34.9697 8.79077V30.7052C34.7261 34.2381 31.4507 37.0101 29.8435 37.9544L18.5253 44.5371C16.6643 43.4399 11.8967 40.5875 7.71456 37.9544C3.5324 35.3213 2.41918 32.0245 2.38535 30.7052V8.79077Z" fill="white"/>
<path d="M19.9467 6.8743H17.2567V20.1646L11.7752 33.7465V33.8715H12.9933C14.6175 33.6049 15.5649 32.4272 15.8356 31.8717C15.9574 31.7384 16.157 31.2884 16.2416 31.0801H21.2155C21.2561 31.3468 21.4016 31.7189 21.4693 31.8717C22.0378 33.0382 23.601 33.691 24.3116 33.8715H25.5804V33.8298L19.9467 20.1646V6.8743Z" fill="white"/>
<path d="M19.9973 28.1221L18.6777 24.8308L17.3073 28.1221V28.2888H19.9973V28.1221Z" fill="#0B111A"/>
</svg>
